<svg xmlns="http://www.w3.org/2000/svg" width="1400" height="760" viewBox="0 0 1400 760" role="img" aria-labelledby="title desc">
  <title id="title">Case 9 Model Serving Lite Architecture</title>
  <desc id="desc">Architecture diagram showing prediction serving flow and retraining promotion flow.</desc>
  <defs>
    <marker id="arrow" markerWidth="14" markerHeight="14" refX="12" refY="7" orient="auto">
      <path d="M 0 0 L 14 7 L 0 14 z" fill="#2563eb"/>
    </marker>
    <style>
      .bg { fill: #f8fafc; }
      .lane { fill: #ffffff; stroke: #cbd5e1; stroke-width: 2; }
      .box { fill: #eff6ff; stroke: #2563eb; stroke-width: 3; rx: 14; }
      .box2 { fill: #ecfdf5; stroke: #059669; stroke-width: 3; rx: 14; }
      .box3 { fill: #fff7ed; stroke: #ea580c; stroke-width: 3; rx: 14; }
      .title { font: 700 34px Arial, sans-serif; fill: #0f172a; }
      .laneTitle { font: 700 24px Arial, sans-serif; fill: #334155; }
      .text { font: 700 21px Arial, sans-serif; fill: #0f172a; }
      .subtext { font: 400 17px Arial, sans-serif; fill: #475569; }
      .arrow { stroke: #2563eb; stroke-width: 4; fill: none; marker-end: url(#arrow); }
      .arrow2 { stroke: #059669; stroke-width: 4; fill: none; marker-end: url(#arrow); }
      .caption { font: 400 18px Arial, sans-serif; fill: #475569; }
    </style>
  </defs>

  <rect class="bg" width="1400" height="760"/>
  <text x="70" y="70" class="title">Model Serving Lite: prediction path + retraining gate</text>
  <text x="70" y="105" class="caption">A notebook model becomes a service that can be called, logged, monitored, and safely updated.</text>

  <rect x="60" y="140" width="1280" height="240" class="lane" rx="18"/>
  <text x="90" y="180" class="laneTitle">Online serving path</text>

  <rect x="95" y="220" width="190" height="90" class="box"/>
  <text x="190" y="258" text-anchor="middle" class="text">Client</text>
  <text x="190" y="286" text-anchor="middle" class="subtext">product app / curl</text>

  <rect x="360" y="220" width="210" height="90" class="box"/>
  <text x="465" y="253" text-anchor="middle" class="text">FastAPI</text>
  <text x="465" y="282" text-anchor="middle" class="subtext">POST /predict</text>

  <rect x="645" y="220" width="220" height="90" class="box"/>
  <text x="755" y="253" text-anchor="middle" class="text">Model wrapper</text>
  <text x="755" y="282" text-anchor="middle" class="subtext">DistilBERT or fallback</text>

  <rect x="940" y="220" width="205" height="90" class="box3"/>
  <text x="1042" y="253" text-anchor="middle" class="text">Prediction log</text>
  <text x="1042" y="282" text-anchor="middle" class="subtext">req id, hash, latency</text>

  <rect x="1210" y="220" width="120" height="90" class="box3"/>
  <text x="1270" y="253" text-anchor="middle" class="text">Monitor</text>
  <text x="1270" y="282" text-anchor="middle" class="subtext">drift summary</text>

  <path d="M 285 265 L 350 265" class="arrow"/>
  <path d="M 570 265 L 635 265" class="arrow"/>
  <path d="M 865 265 L 930 265" class="arrow"/>
  <path d="M 1160 265 L 1200 265" class="arrow"/>

  <rect x="60" y="430" width="1280" height="240" class="lane" rx="18"/>
  <text x="90" y="470" class="laneTitle">Offline retraining and promotion path</text>

  <rect x="95" y="510" width="210" height="90" class="box2"/>
  <text x="200" y="548" text-anchor="middle" class="text">Training data</text>
  <text x="200" y="576" text-anchor="middle" class="subtext">train.csv</text>

  <rect x="385" y="510" width="230" height="90" class="box2"/>
  <text x="500" y="548" text-anchor="middle" class="text">Candidate model</text>
  <text x="500" y="576" text-anchor="middle" class="subtext">train.py output</text>

  <rect x="700" y="510" width="225" height="90" class="box2"/>
  <text x="812" y="548" text-anchor="middle" class="text">Validation metrics</text>
  <text x="812" y="576" text-anchor="middle" class="subtext">accuracy, precision, F1</text>

  <rect x="1010" y="510" width="250" height="90" class="box3"/>
  <text x="1135" y="548" text-anchor="middle" class="text">Promotion gate</text>
  <text x="1135" y="576" text-anchor="middle" class="subtext">rejects F1 regression</text>

  <path d="M 305 555 L 375 555" class="arrow2"/>
  <path d="M 615 555 L 690 555" class="arrow2"/>
  <path d="M 925 555 L 1000 555" class="arrow2"/>

  <text x="70" y="715" class="caption">Key idea: predictions are observable, traffic is monitored for drift, and model updates must pass an evaluation gate before promotion.</text>
</svg>
